<?xml version="1.0" standalone="no"?>
<!DOCTYPE svg PUBLIC "-//W3C//DTD SVG 20010904//EN"
 "http://www.w3.org/TR/2001/REC-SVG-20010904/DTD/svg10.dtd">
<svg version="1.0" xmlns="http://www.w3.org/2000/svg"
 width="400.000000pt" height="400.000000pt" viewBox="0 0 400.000000 400.000000"
 preserveAspectRatio="xMidYMid meet">
<metadata>
Created by potrace 1.11, written by Peter Selinger 2001-2013
</metadata>
<g transform="translate(0.000000,400.000000) scale(0.100000,-0.100000)"
fill="#000000" stroke="none">
<path d="M429 3563 c0 -21 0 -310 -1 -643 l0 -605 49 -45 c28 -25 67 -61 89
-80 22 -19 86 -78 144 -130 58 -52 110 -99 116 -105 6 -5 44 -39 84 -75 40
-36 88 -78 105 -95 32 -29 143 -129 235 -210 25 -22 49 -45 55 -51 5 -6 100
-91 210 -189 110 -98 207 -186 216 -194 9 -9 52 -47 95 -86 80 -72 89 -79 142
-129 l31 -29 88 79 c136 122 163 147 198 179 18 17 65 59 105 95 41 36 81 72
89 80 9 9 54 49 101 90 46 41 94 84 105 95 11 11 58 54 105 95 46 41 94 84
106 95 11 11 52 48 91 82 38 34 83 74 100 90 16 15 63 57 103 93 41 36 100 90
133 120 33 30 73 66 89 79 16 14 58 52 94 85 l65 61 2 643 c1 423 -1 642 -8
642 -5 0 -37 -26 -70 -57 -80 -74 -123 -113 -230 -208 -49 -44 -97 -87 -105
-95 -8 -8 -53 -49 -100 -90 -47 -41 -87 -78 -90 -81 -3 -3 -77 -70 -165 -149
-88 -78 -200 -179 -250 -224 -49 -45 -110 -99 -135 -121 -25 -22 -52 -47 -60
-55 -8 -8 -35 -33 -60 -55 -25 -22 -86 -77 -135 -121 -50 -45 -106 -95 -125
-113 -19 -17 -37 -31 -40 -31 -3 0 -24 17 -46 38 -23 20 -75 66 -115 102 -75
67 -171 153 -199 180 -9 8 -51 47 -95 85 -43 39 -90 81 -104 94 -14 13 -60 53
-101 90 -41 36 -83 75 -95 86 -11 11 -81 74 -155 140 -74 66 -144 129 -156
140 -11 11 -54 49 -94 85 -40 36 -85 76 -100 90 -48 44 -102 93 -195 175 -50
44 -91 83 -93 88 -9 20 -22 3 -23 -30z"/>
<path d="M429 1484 c0 -5 0 -252 -1 -549 l0 -540 604 -3 603 -2 -50 48 c-40
38 -225 207 -281 257 -6 6 -53 49 -105 97 -52 48 -103 95 -115 105 -12 10 -63
56 -114 103 -51 47 -98 90 -104 95 -7 6 -39 35 -72 65 -32 30 -102 93 -153
140 -98 88 -113 102 -174 159 -20 19 -37 31 -38 25z"/>
<path d="M3509 1437 c-68 -63 -221 -202 -247 -225 -24 -21 -219 -200 -247
-227 -12 -11 -39 -35 -61 -54 -37 -32 -196 -178 -253 -231 -15 -14 -74 -68
-131 -120 -58 -52 -127 -116 -155 -142 l-50 -48 603 0 c474 0 602 3 603 13 3
47 0 1079 -3 1082 -2 2 -29 -20 -59 -48z"/>
</g>
</svg>
